#!OML:ASF H:\Terrain\Patient Classification 1\Walking\steve\steve.ASF
:FULLY-SPECIFIED
:DEGREES
288
root 7.37785 15.8944 -0.114842 6.43139 -1.10445 3.23209
lowerback -0.514434 -0.267835 -0.565551
upperback -2.27402 -0.344516 1.02203
thorax -2.03208 -0.151526 1.36904
lowerneck -11.1967 0.345746 -1.28426
upperneck 17.7775 1.12697 -2.13251
head 7.30768 0.259571 -0.373479
rclavicle -8.22472e-015 -8.74653e-015
rhumerus -63.8738 -26.9271 -51.7332
rradius 19.6767
rwrist 16.8887
rhand -12.6663 -36.1498
rfingers 7.12502
rthumb 13.4149 -65.6978
lclavicle -8.22472e-015 -8.74653e-015
lhumerus -11.2918 -0.234153 86.2807
lradius 41.9222
lwrist 20.9988
lhand -22.6019 -15.0397
lfingers 7.12502
lthumb 3.82752 14.9056
rfemur -41.7146 3.51355 19.6885
rtibia 37.1495
rfoot -6.55861 4.2804
rtoes 3.25503
lfemur 13.4527 -0.0276484 -28.2197
ltibia 18.9142
lfoot -6.59718 -2.56504
ltoes -15.9569
289
root 7.37394 15.8929 0.0575026 6.1915 -1.46377 3.42924
lowerback -0.398161 -0.165995 -0.720122
upperback -2.08258 -0.210482 1.0463
thorax -1.90395 -0.0831803 1.47877
lowerneck -11.0491 0.359794 -1.15179
upperneck 17.4476 1.16792 -2.44181
head 7.1772 0.265626 -0.491679
rclavicle -7.57867e-015 -1.59028e-015
rhumerus -63.1675 -27.3317 -51.8615
rradius 19.703
rwrist 17.5145
rhand -13.8179 -34.2537
rfingers 7.12502
rthumb 12.3046 -63.8716
lclavicle -7.57867e-015 -1.59028e-015
lhumerus -12.0473 -0.000388804 86.4236
lradius 41.8317
lwrist 21.1635
lhand -24.1144 -16.038
lfingers 7.12502
lthumb 2.36688 13.9286
rfemur -41.43 3.49909 19.6395
rtibia 38.2156
rfoot -6.96542 5.00932
rtoes 2.40802
lfemur 12.8002 0.603126 -28.3648
ltibia 21.5051
lfoot -4.07838 -2.59088
ltoes -11.6642
290
root 7.37662 15.8961 0.223153 6.02123 -1.62318 3.29864
lowerback -0.226714 -0.13676 -0.378651
upperback -1.97927 -0.167874 1.14226
thorax -1.89598 -0.0672654 1.38535
lowerneck -11.0604 0.403237 -1.30751
upperneck 17.3996 1.24408 -2.38062
head 7.16321 0.297998 -0.438783
rclavicle -1.68967e-014 -1.27222e-014
rhumerus -62.3603 -27.6707 -52.011
rradius 19.5061
rwrist 18.1523
rhand -17.3431 -29.1924
rfingers 7.12502
rthumb 8.90426 -58.9845
lclavicle -1.68967e-014 -1.27222e-014
lhumerus -12.9381 0.0671293 86.5505
lradius 41.7158
lwrist 21.5691
lhand -26.1044 -16.7066
lfingers 7.12502
lthumb 0.444876 13.2726
rfemur -41.0962 3.46517 19.8754
rtibia 39.1396
rfoot -7.18823 5.64397
rtoes 4.04301
lfemur 11.9574 1.08516 -28.1139
ltibia 24.1219
lfoot -1.9662 -1.43615
ltoes -12.0535
291
root 7.38325 15.9099 0.387423 5.94654 -1.68178 3.23698
lowerback -0.0416451 -0.148482 -0.0787023
upperback -1.96642 -0.178738 1.21654
thorax -1.98709 -0.07675 1.2941
lowerneck -11.2155 0.48262 -1.52337
upperneck 17.6631 1.37656 -2.23031
head 7.27512 0.355755 -0.341724
rclavicle 1.19519e-014 5.56597e-015
rhumerus -61.5731 -27.971 -52.1596
rradius 19.232
rwrist 18.8793
rhand -19.4405 -23.1482
rfingers 7.12502
rthumb 6.87991 -53.0164
lclavicle 1.19519e-014 5.56597e-015
lhumerus -13.8735 -0.100185 86.6508
lradius 41.3621
lwrist 21.7997
lhand -26.7286 -16.9109
lfingers 7.12502
lthumb -0.158009 13.0688
rfemur -40.7053 3.23784 20.0593
rtibia 39.8482
rfoot -7.40538 6.30388
rtoes 4.90194
lfemur 10.845 1.18505 -28.0094
ltibia 26.8758
lfoot -0.18388 0.0251261
ltoes -11.3258
